# xmcd
#
# Track frame offsets:
#	150
#	10183
#	23086
#	37689
#	48893
#	59707
#	70423
#	79858
#	91828
#	102392
#
# Disc length: 1472 seconds
#
# Revision: 0
# Processed by: cddbd v1.5.1PL0 Copyright (c) Steve Scherf et al.
# Submitted via: EasyCDDAExtractor 7.5.2.1
#
DISCID=7505be0a
DTITLE=Charley Pride - Pride In America
DYEAR=1900
DGENRE=Country
TTITLE0=Then Who Am I
TTITLE1=I Still Can't Leave Your Memory Alone
TTITLE2=The Hard Times Will Be The Best Of Times
TTITLE3=Completely Helpless
TTITLE4=Mississippi Cotton Picking Delta Town
TTITLE5=She Loves Me The Way I Love You
TTITLE6=Mary Go Round
TTITLE7=That Was Forever Ago
TTITLE8=Thorns Of Life
TTITLE9=Northwind
EXTD=
EXTT0=
EXTT1=
EXTT2=
EXTT3=
EXTT4=
EXTT5=
EXTT6=
EXTT7=
EXTT8=
EXTT9=
PLAYORDER=
